<svg width="1440" height="821" viewBox="0 0 1440 821" fill="none" xmlns="http://www.w3.org/2000/svg">
<rect width="1440" height="821" fill="#E5D4E7"/>
<path d="M1378.57 213.505C1378.75 213.225 1378.8 212.962 1378.79 212.761C1378.73 211.631 1377.08 210.607 1375.64 209.696L1375.41 209.556C1374.71 209.118 1373.48 208.619 1372.65 208.453C1363.85 206.605 1362.86 206.01 1359.96 204.249C1359.07 203.706 1357.95 203.032 1356.39 202.191C1355.11 201.49 1354.04 200.755 1352.92 199.966C1352.12 199.406 1351.28 198.828 1350.36 198.259C1349.91 197.987 1349.32 197.724 1348.75 197.47C1348.21 197.234 1347.66 196.989 1347.26 196.752C1346.47 196.262 1345.27 195.806 1343.99 195.325C1342.76 194.852 1341.49 194.37 1340.75 193.906C1340.16 193.529 1339.88 193.144 1339.61 192.767C1339.22 192.224 1338.81 191.673 1337.63 191.34C1336.17 190.929 1334.61 190.885 1333.17 191.191C1333.18 191.13 1333.17 191.069 1333.16 191.007C1333.1 190.859 1331.76 187.39 1329 186.751C1325.98 186.051 1309.94 192.794 1301.5 201.893C1296.7 207.069 1295.4 208.593 1294.41 212.604C1294.32 212.955 1294.27 213.436 1294.26 214.015V214.032V214.041C1294.16 219.024 1296.61 231.259 1297.37 234.332C1297.54 235.024 1298.17 235.532 1298.94 235.602L1302.09 235.882C1302.16 235.891 1302.24 235.891 1302.3 235.891C1302.96 235.891 1303.58 235.628 1304.01 235.181C1304.07 235.208 1304.13 235.225 1304.19 235.225C1304.27 235.225 1304.35 235.207 1304.43 235.164C1305.54 234.568 1306.11 234.708 1306.95 234.927C1307.49 235.067 1308.09 235.217 1308.94 235.226C1310.02 235.226 1311.06 235.173 1312.05 235.111C1312.87 235.068 1313.7 235.015 1314.6 234.997C1318.39 234.936 1323.1 234.629 1327.19 234.174C1328.19 234.06 1329.22 233.798 1330.23 233.535C1331.26 233.263 1332.33 232.983 1333.4 232.869C1334.37 232.764 1335.36 232.799 1336.33 232.826C1337.56 232.861 1338.83 232.905 1340.11 232.668C1340.71 232.554 1341.22 232.432 1341.7 232.3C1341.68 232.94 1341.65 233.597 1341.61 234.253C1341.36 238.728 1341.08 243.799 1344.9 244.447C1344.97 244.465 1345.06 244.474 1345.13 244.474C1345.38 244.474 1345.6 244.395 1345.78 244.229C1346.75 243.379 1346.26 240.218 1345.38 235.147C1345.17 233.982 1344.95 232.712 1344.78 231.521C1345.3 231.442 1345.86 231.398 1346.52 231.416C1347.95 231.442 1349.3 231.031 1350.6 230.636C1351.6 230.33 1352.64 230.014 1353.67 229.918C1354.72 229.812 1355.72 229.953 1356.78 230.093C1358.08 230.268 1359.43 230.452 1360.92 230.181C1361.23 230.128 1361.59 230.023 1361.96 229.909C1362.72 229.69 1363.57 229.453 1364.11 229.567C1366.26 230.058 1370.41 229.147 1373.15 228.543L1374.54 228.385C1374.56 229.191 1374.52 230.014 1374.48 230.899C1374.44 231.705 1374.41 232.554 1374.41 233.491V233.579C1374.43 235.033 1374.27 238.659 1372.49 240.9C1371.44 242.214 1371.6 246.032 1372.5 248.037C1372.89 248.896 1373.38 249.377 1373.96 249.456C1374.08 249.473 1374.19 249.482 1374.3 249.482C1376.51 249.482 1377.16 246.269 1377.55 244.307L1377.59 244.105C1378.54 239.42 1378.77 237.879 1378.77 236.25C1378.77 235.672 1378.78 234.954 1378.79 234.104C1378.82 231.862 1378.86 228.797 1378.77 225.233C1378.76 224.69 1378.92 223.543 1379.07 222.527C1379.21 221.599 1379.34 220.723 1379.35 220.233C1379.36 219.348 1379.47 218.551 1379.56 217.842C1379.81 216.115 1379.98 214.714 1378.57 213.505L1378.57 213.505ZM1337.36 192.163C1338.21 192.399 1338.47 192.758 1338.82 193.24C1339.12 193.642 1339.48 194.133 1340.22 194.606C1341.04 195.123 1342.36 195.631 1343.63 196.112C1344.81 196.559 1346.02 197.023 1346.74 197.461C1347.18 197.732 1347.78 197.995 1348.35 198.24C1348.88 198.476 1349.45 198.721 1349.84 198.958C1350.75 199.51 1351.57 200.088 1352.35 200.64C1353.45 201.402 1354.58 202.199 1355.91 202.916C1357.45 203.748 1358.55 204.414 1359.44 204.957C1362.45 206.787 1363.47 207.4 1372.43 209.283C1373.15 209.432 1374.27 209.878 1374.87 210.255L1375.1 210.404C1376.11 211.035 1377.79 212.094 1377.84 212.786C1377.85 212.874 1377.82 213.013 1377.55 213.233C1377.4 213.347 1376.96 213.688 1376.5 214.073C1375.56 214.844 1374.42 215.396 1373.18 215.658C1372.29 215.851 1371.4 216.035 1370.78 216.14C1369.23 216.402 1368.43 216.254 1367.57 216.087C1366.75 215.93 1365.81 215.746 1364.2 215.939C1362.68 216.114 1361.13 216.245 1359.63 216.368C1358 216.499 1356.32 216.639 1354.67 216.84C1352.91 217.059 1351.25 217.506 1349.64 217.944C1348.56 218.233 1347.44 218.539 1346.31 218.767C1345.73 218.881 1345.27 219.161 1344.96 219.573C1344.34 219.809 1343.78 220.151 1343.23 220.483C1342.77 220.764 1342.33 221.027 1341.87 221.227C1338.16 222.892 1332.22 221.884 1328.25 221.771C1322.39 221.596 1316.49 220.816 1310.64 220.912C1307.56 220.956 1303.37 219.923 1301.34 217.996C1302.03 217.103 1302.69 216.236 1303.34 215.378C1303.79 214.774 1304.24 214.178 1304.71 213.583C1307.24 210.64 1310.61 206.909 1313.02 204.404C1315.33 201.987 1322.57 197.538 1327.65 194.552C1329.01 193.86 1330.45 193.168 1331.99 192.467C1333.59 191.769 1335.55 191.655 1337.36 192.163L1337.36 192.163ZM1303.35 234.558C1303.06 234.873 1302.64 235.03 1302.19 234.996L1299.05 234.715C1298.69 234.68 1298.38 234.444 1298.31 234.12C1297.59 231.239 1295.23 219.468 1295.21 214.449C1296.61 214.668 1298.31 216.385 1299.4 218.049C1299.48 218.189 1299.64 218.259 1299.8 218.259C1299.89 218.259 1299.97 218.242 1300.05 218.198C1300.27 218.075 1300.34 217.804 1300.21 217.594C1299.77 216.928 1297.6 213.802 1295.25 213.548C1295.27 213.25 1295.31 212.987 1295.36 212.777C1296.27 209.134 1297.32 207.768 1302.26 202.443C1310.72 193.318 1326.37 187.021 1328.81 187.573C1330.64 187.993 1331.78 190.121 1332.16 190.945C1331.39 191.374 1329.49 192.451 1327.14 193.826C1314.28 200.376 1309.08 206.393 1303.96 213.084C1301.91 215.475 1300.29 217.524 1300.29 218.032V218.05V218.058C1300.32 218.969 1302.48 229.198 1303.66 233.419C1303.74 233.839 1303.64 234.242 1303.35 234.557L1303.35 234.558ZM1339.94 231.799C1338.77 232.018 1337.6 231.983 1336.38 231.939C1335.39 231.912 1334.36 231.878 1333.31 231.991C1332.16 232.114 1331.06 232.403 1329.98 232.683C1328.97 232.946 1328.03 233.191 1327.09 233.296C1323.03 233.752 1318.35 234.058 1314.59 234.11C1313.69 234.128 1312.84 234.171 1312 234.224C1310.98 234.285 1310 234.338 1308.94 234.33C1308.23 234.33 1307.7 234.19 1307.2 234.067C1306.41 233.865 1305.67 233.69 1304.56 234.11C1304.62 233.812 1304.62 233.515 1304.53 233.209C1304.17 231.921 1303.75 230.178 1303.32 228.339C1304.94 228.418 1305.32 229.425 1305.69 231.045C1305.89 231.877 1306.09 232.735 1306.65 233.305C1306.94 233.603 1307.38 233.725 1307.79 233.629C1308.21 233.532 1308.53 233.235 1308.62 232.84C1308.72 232.499 1308.78 232.105 1308.86 231.702C1309.19 229.837 1309.55 228.505 1311.09 228.313C1312.38 228.155 1314.4 228.392 1316.36 228.619C1318.6 228.882 1320.71 229.127 1322.02 228.855C1323.17 228.619 1324.32 228.435 1325.44 228.251C1327.81 227.866 1330.05 227.498 1332.29 226.736C1332.86 226.543 1334.01 226.736 1334.93 226.894C1335.51 226.99 1336.05 227.086 1336.48 227.095C1336.88 227.104 1337.32 227.104 1337.79 227.095C1338.63 227.086 1339.49 227.069 1340.25 227.156C1341.48 227.332 1341.73 229.127 1341.71 231.36C1341.2 231.527 1340.62 231.677 1339.94 231.799ZM1372.95 227.683C1370.46 228.235 1366.28 229.145 1364.36 228.707C1363.56 228.523 1362.58 228.804 1361.7 229.058C1361.35 229.154 1361.02 229.251 1360.74 229.303C1359.42 229.548 1358.2 229.382 1356.92 229.206C1355.85 229.058 1354.75 228.908 1353.58 229.022C1352.44 229.136 1351.36 229.46 1350.31 229.775C1349.01 230.169 1347.8 230.537 1346.54 230.511C1345.83 230.493 1345.22 230.546 1344.66 230.625C1344.4 228.619 1344.31 226.938 1344.73 226.448C1347.04 226.246 1353.38 225.887 1355.8 225.773C1357.87 225.677 1360 225.126 1362.06 224.582C1364.33 223.996 1366.65 223.391 1368.96 223.383C1368.99 223.418 1369.04 223.444 1369.09 223.47C1369.61 223.672 1370.52 223.645 1371.86 223.584C1372.4 223.558 1373.21 223.523 1373.52 223.567C1374.14 224.994 1374.41 226.247 1374.5 227.499L1372.95 227.683ZM1378.64 217.743C1378.55 218.47 1378.43 219.293 1378.42 220.23C1378.41 220.668 1378.28 221.553 1378.16 222.42C1378 223.514 1377.83 224.644 1377.85 225.257C1377.92 228.804 1377.89 231.87 1377.86 234.102C1377.86 234.952 1377.85 235.679 1377.85 236.257C1377.85 237.825 1377.62 239.331 1376.68 243.955L1376.65 244.156C1376.3 245.899 1375.71 248.824 1374.12 248.605C1373.95 248.579 1373.67 248.334 1373.39 247.721C1372.55 245.829 1372.48 242.431 1373.26 241.441C1375.15 239.068 1375.4 235.503 1375.37 233.507C1375.37 232.587 1375.41 231.747 1375.45 230.95C1375.56 228.322 1375.66 226.054 1374.34 223.129C1374.13 222.657 1373.45 222.674 1371.82 222.744C1371.48 222.762 1371.09 222.78 1370.72 222.788C1370.65 222.691 1370.53 222.621 1370.39 222.604C1367.47 222.306 1364.59 223.059 1361.8 223.786C1359.71 224.329 1357.72 224.846 1355.75 224.942C1353.32 225.056 1346.96 225.423 1344.64 225.616C1344.36 225.642 1344.11 225.765 1343.93 225.984C1343.39 226.632 1343.7 230.853 1343.69 230.853C1343.69 230.853 1344.22 233.962 1344.44 235.293C1344.95 238.244 1345.82 243.193 1345.09 243.596C1342.06 243.079 1342.33 238.42 1342.55 234.304C1342.6 233.533 1342.64 232.763 1342.66 232.036C1342.69 232.027 1342.7 231.108 1342.67 231.117C1342.66 228.568 1342.24 226.589 1340.39 226.326C1339.55 226.221 1338.65 226.239 1337.77 226.256C1337.33 226.265 1336.9 226.274 1336.52 226.256C1336.16 226.247 1335.65 226.16 1335.11 226.072C1334.02 225.888 1332.79 225.678 1331.97 225.958C1329.81 226.694 1327.61 227.053 1325.29 227.438C1324.16 227.622 1322.99 227.815 1321.83 228.052C1320.69 228.288 1318.55 228.034 1316.49 227.798C1314.47 227.561 1312.38 227.316 1310.98 227.491C1308.61 227.781 1308.23 229.987 1307.93 231.608C1307.87 231.993 1307.8 232.352 1307.72 232.676C1307.69 232.772 1307.61 232.807 1307.57 232.816C1307.52 232.824 1307.43 232.833 1307.36 232.754C1306.97 232.361 1306.8 231.651 1306.62 230.898C1306.26 229.374 1305.82 227.483 1303.12 227.483C1302.39 224.278 1301.7 220.941 1301.38 219.241C1305.72 222.368 1312.17 221.921 1317.35 222.236C1323.74 222.63 1330.13 222.832 1336.53 222.823C1338.09 222.823 1339.69 222.797 1341.2 222.42C1342.86 222.009 1343.91 220.923 1345.44 220.371C1345.54 220.336 1345.61 220.266 1345.67 220.187C1345.84 219.907 1346.11 219.74 1346.49 219.662C1347.65 219.425 1348.8 219.118 1349.89 218.821C1351.47 218.392 1353.1 217.954 1354.78 217.744C1356.41 217.542 1358.08 217.403 1359.7 217.272C1361.21 217.149 1362.77 217.018 1364.31 216.834C1365.77 216.658 1366.55 216.816 1367.37 216.973C1368.28 217.149 1369.21 217.333 1370.94 217.035C1371.56 216.929 1372.48 216.736 1373.38 216.544C1374.77 216.246 1376.06 215.634 1377.11 214.758C1377.39 214.522 1377.66 214.311 1377.87 214.145C1378.99 215.046 1378.86 216.088 1378.64 217.743L1378.64 217.743Z" fill="black"/>
<path d="M1311.65 213.349C1311.39 213.375 1311.2 213.594 1311.23 213.83C1311.24 213.9 1311.27 213.97 1311.31 214.023C1311.12 213.988 1310.93 214.059 1310.82 214.216C1310.45 214.742 1310.51 215.319 1310.98 215.713C1311.3 215.976 1311.79 216.134 1312.28 216.134C1312.66 216.134 1313.03 216.037 1313.31 215.819C1314.06 215.241 1313.89 214.636 1313.79 214.4C1313.46 213.682 1312.4 213.27 1311.65 213.349ZM1312.7 215.144C1312.47 215.328 1311.87 215.284 1311.61 215.057C1311.54 215.004 1311.45 214.926 1311.61 214.697C1311.71 214.549 1311.71 214.356 1311.61 214.216C1311.66 214.225 1311.7 214.225 1311.75 214.225C1312.16 214.19 1312.78 214.452 1312.91 214.742C1312.94 214.785 1313 214.917 1312.7 215.144Z" fill="black"/>
<path d="M1331.19 213.735C1331.05 213.805 1330.75 213.884 1330.45 213.954C1329.66 214.155 1328.76 214.374 1328.49 214.987C1328.4 215.189 1328.35 215.513 1328.6 215.915C1328.86 216.318 1329.25 216.555 1329.67 216.555H1329.75C1330.13 216.528 1330.45 216.31 1330.6 215.986C1330.75 215.635 1330.65 215.242 1330.34 214.891C1330.47 214.856 1330.6 214.83 1330.69 214.804C1331.06 214.707 1331.38 214.628 1331.62 214.514C1331.85 214.4 1331.94 214.138 1331.81 213.928C1331.71 213.7 1331.43 213.621 1331.19 213.735ZM1329.69 215.67C1329.62 215.679 1329.52 215.627 1329.42 215.468C1329.38 215.39 1329.36 215.329 1329.37 215.311C1329.39 215.276 1329.43 215.232 1329.49 215.197C1329.5 215.276 1329.55 215.354 1329.6 215.424C1329.73 215.539 1329.75 215.627 1329.69 215.67Z" fill="black"/>
<path d="M1330.99 204.485C1331.2 204.634 1331.49 204.608 1331.65 204.416C1331.76 204.293 1331.86 204.249 1331.95 204.284C1332.03 204.32 1332.08 204.399 1332.07 204.433C1332.06 204.469 1331.94 204.564 1331.6 204.608C1330.98 204.669 1330.29 204.424 1329.94 204.013C1329.73 203.759 1329.68 203.478 1329.79 203.181C1329.89 202.954 1329.76 202.7 1329.52 202.621C1329.27 202.533 1329 202.656 1328.92 202.875C1328.68 203.461 1328.78 204.057 1329.21 204.556C1329.7 205.134 1330.58 205.502 1331.42 205.502C1331.52 205.502 1331.62 205.493 1331.71 205.484C1332.77 205.37 1332.98 204.81 1333.02 204.574C1333.09 204.136 1332.8 203.68 1332.34 203.488C1331.95 203.33 1331.38 203.357 1330.93 203.873C1330.76 204.056 1330.79 204.337 1330.99 204.485Z" fill="black"/>
<path d="M1337.26 197.673C1337.48 197.673 1337.69 197.655 1337.88 197.621C1338.7 197.454 1339.17 196.955 1339.12 196.281C1339.12 196.071 1338.94 195.904 1338.72 195.878C1338.61 195.87 1338.51 195.87 1338.41 195.87H1338.25C1337.99 195.843 1337.75 196.018 1337.73 196.255C1337.71 196.439 1337.8 196.605 1337.96 196.684C1337.92 196.701 1337.87 196.727 1337.8 196.745C1337.1 196.938 1336.16 196.675 1335.92 196.482C1335.96 196.456 1336.02 196.403 1336.13 196.351C1336.36 196.237 1336.44 195.966 1336.32 195.756C1336.2 195.545 1335.9 195.466 1335.68 195.58C1334.83 196.018 1334.92 196.535 1335.01 196.745C1335.23 197.366 1336.34 197.673 1337.26 197.673Z" fill="black"/>
<path d="M1343.33 217.483C1343.54 217.483 1343.75 217.439 1343.99 217.316C1344.17 217.229 1344.26 217.045 1344.23 216.861C1344.18 216.563 1344.04 216.396 1343.88 216.204L1343.75 216.292C1343.8 216.231 1343.84 216.161 1343.85 216.081C1343.89 215.845 1343.7 215.626 1343.44 215.591C1342.62 215.494 1342.33 215.897 1342.23 216.072C1342.05 216.423 1342.17 216.886 1342.51 217.185C1342.7 217.351 1342.99 217.483 1343.33 217.483ZM1343.32 216.458C1343.4 216.467 1343.49 216.458 1343.56 216.423L1343.35 216.607C1343.28 216.616 1343.23 216.598 1343.19 216.571C1343.12 216.528 1343.09 216.466 1343.07 216.466C1343.09 216.458 1343.16 216.44 1343.32 216.458Z" fill="black"/>
<path d="M1353.11 213.288C1353.18 213.63 1353.49 213.893 1353.99 214.024C1354.19 214.076 1354.47 214.12 1354.74 214.12C1355.09 214.12 1355.45 214.05 1355.67 213.848C1355.87 213.656 1355.98 213.314 1355.96 212.938C1355.93 212.561 1355.77 212.246 1355.52 212.071C1355.02 211.72 1354.39 211.94 1353.93 212.106C1353.8 212.149 1353.67 212.202 1353.56 212.22C1353.3 212.272 1353.14 212.509 1353.21 212.746C1353.09 212.964 1353.08 213.148 1353.11 213.288ZM1354.2 212.999C1354.23 212.981 1354.26 212.955 1354.28 212.929C1354.46 212.868 1354.87 212.718 1354.95 212.771C1355.02 212.85 1355.04 213.156 1355.03 213.209C1354.85 213.297 1354.29 213.227 1354.08 213.113C1354.1 213.087 1354.14 213.052 1354.2 212.999Z" fill="black"/>
<path d="M1347.56 203.076C1347.76 203.076 1347.96 203.04 1348.16 202.962C1348.28 202.918 1348.37 202.831 1348.42 202.717C1348.47 202.602 1348.47 202.48 1348.41 202.375C1348.23 202.016 1347.99 201.876 1347.74 201.841C1347.89 201.762 1347.98 201.604 1347.98 201.429C1347.96 201.184 1347.73 201.018 1347.47 201.026C1346.7 201.088 1346.45 201.517 1346.38 201.692C1346.24 202.051 1346.36 202.471 1346.68 202.76C1346.92 202.962 1347.23 203.076 1347.56 203.076Z" fill="black"/>
<path d="M1368.1 213.778C1368.26 213.778 1368.4 213.743 1368.53 213.7C1369.03 213.498 1369.33 212.999 1369.19 212.587C1369.13 212.386 1368.85 211.931 1367.83 212.123C1367.69 212.149 1367.57 212.237 1367.51 212.35C1367.37 212.368 1367.2 212.429 1367.05 212.613C1366.93 212.753 1366.92 212.937 1367.01 213.086C1367.31 213.603 1367.73 213.778 1368.1 213.778Z" fill="black"/>
<path fill-rule="evenodd" clip-rule="evenodd" d="M197.575 74.8841C192.28 72.4662 185.392 68.2478 179.955 68.6279C180.951 70.611 175.344 71.407 174.585 72.0571C174.174 71.6719 175.99 70.1765 174.391 70.5996C173.854 71.994 171.794 69.0499 169.882 69.527C170.82 68.9578 168.857 67.4985 167.226 66.3607C169.563 65.8494 167.356 62.6183 166.723 60.8482C161.235 60.2945 155.298 53.5956 150.854 58.5186C150.462 57.9978 151.415 57.6246 150.66 57.0625C147.828 59.1872 143.754 58.4268 141.57 56.0576C140.125 54.4916 140.066 52.0436 138.493 50.5472C136.813 48.9494 135.359 49.5761 133.453 48.8417C131.333 48.0218 129.263 46.0339 126.746 46.3769L125.234 47.6457C124.826 49.9078 126.098 55.3612 126.807 58.7342C129.315 70.681 131.656 81.2313 133.304 91.0472C134.887 92.6979 134.876 92.6848 136.226 94.5295C133.485 104.566 140.502 115.683 141.055 126.084L142.118 127.35C153.679 127.397 170.487 125.89 184.576 112.225C190.471 106.508 194.173 100.975 197.527 93.2654C199.778 88.0904 203.139 79.4181 200.903 76.4053C200.252 75.518 198.58 75.342 197.574 74.8847L197.575 74.8841ZM164.374 119.465C164.04 118.255 162.267 119.382 163.541 119.087C163.101 121.248 158.933 119.817 158.51 121.69C157.43 122.174 156.47 120.792 155.439 120.488C153.583 121.2 154.117 121.825 152.452 122.457C152.238 122.05 152.873 121.738 152.526 121.316C151.954 122.437 149.638 121.056 149.274 122.969C148.464 122.045 147.182 121.91 145.673 121.135C144.273 116.137 145.162 114.026 142.093 110.112C142.49 109.867 142.832 110.476 143.192 110.808C142.975 107.529 142.697 104.244 140.978 100.798C142.105 97.8353 142.461 91.8012 139.369 90.2812C135.846 79.0775 135.504 68.0081 131.277 56.068C132.479 55.5291 131.814 54.787 131.69 54.1028C135.232 53.8915 135.975 58.9638 138.936 61.5098C143.352 65.3059 148.308 65.4742 154.082 61.7493C155.821 63.5355 159.523 63.5072 162.192 64.6555C164.488 75.0242 175.698 79.4849 183.374 73.3168C188.148 74.6968 192.827 77.5544 197.623 78.6244C197.644 93.8624 182.381 114.681 164.374 119.464L164.374 119.465Z" fill="black"/>
<path fill-rule="evenodd" clip-rule="evenodd" d="M152.804 68.2125C152.841 68.7861 150.503 68.6572 149.662 68.1515C147.712 69.417 147.496 69.9809 145.502 70.5641C137.539 78.792 148.878 95.2222 159.839 83.3503C163.507 77.9835 155.975 68.888 152.804 68.2125ZM149.723 80.5088C146.848 77.0874 150.54 73.3117 154.71 74.1665C157.506 77.1564 157.725 79.8618 155.899 82.3399C153.871 82.3356 151.039 82.0735 149.723 80.5088Z" fill="black"/>
<path fill-rule="evenodd" clip-rule="evenodd" d="M145.859 100.475C145.994 100.308 146.012 99.9518 145.593 100.158C145.017 101.666 145.436 106.671 147.689 107.57C147.419 107.253 146.826 107.615 147.085 108.077C154.404 117.381 167.689 109.828 163.883 100.456C160.072 91.0722 150.93 94.1417 145.859 100.475ZM156.587 107.118C156.112 105.194 154.093 105.859 152.72 104.967C150.171 102.089 152.815 99.2813 156.04 97.8658C161.086 98.8878 161.942 107.26 156.587 107.118Z" fill="black"/>
<path fill-rule="evenodd" clip-rule="evenodd" d="M168.595 89.4893C168.449 89.3128 168.049 89.3358 168.294 89.7422C169.349 89.3417 168.295 91.0424 168.182 91.4545C167.854 91.1249 168.21 90.5923 167.652 90.8228C167.363 92.1395 166.653 92.8699 167.845 92.279C166.67 95.0632 168.866 97.1683 169.942 99.6911C171.84 101.165 174.705 102.687 177.447 103.105C185.927 102.144 190.258 93.6565 181.731 85.4832C177.39 83.2199 170.799 86.3134 168.595 89.4893ZM180.388 97.3979C178.427 96.4531 176.521 96.9801 175.348 95.6924C171.417 91.3812 176.786 86.8454 180.334 89.3501C182.653 90.9872 183.808 94.5104 180.388 97.3982L180.388 97.3979Z" fill="black"/>
<path d="M1194.79 58.0092C1193.7 58.0467 1192.58 58.1998 1191.46 58.4419C1187.5 59.3038 1183.36 61.2356 1179.38 63.4059C1175.39 65.5757 1171.59 67.9973 1168.47 69.8526C1166.92 70.7803 1165.54 71.5676 1164.43 72.1001C1163.32 72.632 1162.42 72.8525 1162.29 72.8525C1156.14 72.8525 1150.57 76.8617 1150.57 76.8617C1150.17 77.1387 1150 77.5853 1150.14 78.0016C1150.28 78.4174 1150.72 78.7257 1151.24 78.7874C1158.75 79.7567 1165.39 83.5818 1169.35 89.2674L1169.35 89.2679C1169.69 89.7654 1170.45 89.9638 1171.08 89.7228C1172.54 89.1775 1173.31 88.0278 1173.47 86.9717C1173.63 85.9156 1173.39 84.8769 1173.2 83.9236C1173 82.9702 1172.84 82.0909 1172.91 81.5605C1172.97 81.0307 1172.97 80.9757 1173.5 80.8184C1175.65 80.1883 1176.97 79.4621 1177.82 78.5386C1178.67 77.6151 1179.01 76.6854 1179.64 75.5794C1180.86 73.46 1182.76 72.5262 1185.57 71.8653C1188.38 71.2044 1192.05 70.949 1196.16 70.3544C1200.53 69.7207 1202.96 67.8089 1203.71 65.728C1204.45 63.6472 1203.71 61.5904 1202.28 60.3416C1200.86 59.1102 1199.15 58.4185 1197.3 58.1424C1196.83 58.0736 1196.36 58.0294 1195.88 58.0109C1195.52 57.997 1195.16 57.9965 1194.79 58.0088L1194.79 58.0092ZM1195.96 61.6359C1196.49 61.6426 1197.01 61.8302 1197.39 62.1596C1197.77 62.4962 1197.99 62.9531 1197.99 63.429C1197.99 63.9054 1197.77 64.3618 1197.39 64.6984C1196.58 65.3984 1195.27 65.3984 1194.47 64.6984C1194.08 64.3618 1193.86 63.9054 1193.86 63.429C1193.86 62.9531 1194.08 62.4962 1194.47 62.1596C1194.86 61.8173 1195.4 61.6282 1195.96 61.6359ZM1154.92 80.663L1152.13 82.601C1155.87 83.2239 1159.24 84.7174 1161.97 86.8106L1164.05 85.366C1161.44 83.2286 1158.32 81.621 1154.92 80.663H1154.92ZM1148.16 84.4579C1143.35 84.4574 1138.73 86.1189 1135.32 89.0771C1131.91 92.0347 1130 96.0465 1130 100.23C1130 104.413 1131.91 108.424 1135.32 111.382C1138.73 114.339 1143.35 116 1148.16 116C1152.98 116 1157.6 114.338 1161.01 111.381C1164.41 108.424 1166.33 104.412 1166.33 100.23C1166.33 96.0472 1164.41 92.036 1161.01 89.0777C1157.6 86.1201 1152.98 84.4581 1148.16 84.4581L1148.16 84.4579ZM1137.36 92.5837H1137.36C1137.86 92.595 1138.32 92.8366 1138.53 93.2092C1138.75 93.5812 1138.69 94.0212 1138.39 94.3475C1137.71 95.0866 1137.15 95.9099 1136.74 96.7893C1136.62 97.0719 1136.36 97.3027 1136.03 97.4291C1135.7 97.555 1135.32 97.5653 1134.98 97.4579C1134.64 97.35 1134.36 97.1336 1134.22 96.8581C1134.08 96.5827 1134.08 96.2722 1134.23 95.9983C1134.73 94.9345 1135.41 93.941 1136.24 93.0391V93.0386C1136.47 92.778 1136.83 92.6126 1137.22 92.5858C1137.27 92.5833 1137.31 92.5827 1137.36 92.5837ZM1148.16 97.8048C1148.91 97.8043 1149.62 98.0597 1150.14 98.5145C1150.66 98.9693 1150.96 99.5866 1150.96 100.23C1150.96 100.874 1150.67 101.491 1150.14 101.947C1149.62 102.402 1148.91 102.658 1148.16 102.657C1147.42 102.658 1146.71 102.402 1146.19 101.947C1145.66 101.491 1145.37 100.874 1145.37 100.23C1145.37 99.5866 1145.66 98.9693 1146.19 98.5145C1146.71 98.0597 1147.42 97.8043 1148.16 97.8048ZM1134.49 99.5244V99.5238C1134.86 99.5202 1135.2 99.6359 1135.46 99.8445C1135.72 100.053 1135.86 100.337 1135.85 100.632C1135.85 103.333 1137.1 105.919 1139.29 107.797C1141.47 109.675 1144.41 110.696 1147.44 110.659V110.66C1148.17 110.663 1148.77 111.143 1148.78 111.74C1148.79 112.338 1148.21 112.832 1147.48 112.853C1143.68 112.897 1140.02 111.602 1137.34 109.3C1134.66 106.998 1133.16 103.882 1133.16 100.632C1133.16 100.342 1133.3 100.061 1133.55 99.8538C1133.8 99.6456 1134.14 99.5274 1134.49 99.5238L1134.49 99.5244Z" fill="black"/>
<path d="M812.346 138.849C816.71 137.096 808.406 124.606 807.323 122.542C806.674 121.314 804.682 122.39 805.332 123.61C805.383 123.705 807.297 126.272 809.28 130.416C809.86 131.627 810.458 132.855 810.813 134.146C811.09 135.15 811.921 137.031 810.613 136.019C809.938 135.501 809.392 134.848 808.907 134.13C808.094 131.866 805.634 127.515 804.708 125.873C804.059 124.55 803.617 124 803.738 124.183C802.941 123.027 801.054 124.04 801.746 125.251C801.911 125.53 802.067 125.809 802.231 126.088C802.967 127.538 805.166 131.986 806.405 134.249C806.535 134.616 806.647 134.983 806.743 135.357C806.925 135.963 807.038 136.577 807.089 137.207C807.349 138.394 807.211 138.362 806.682 137.119C806.145 136.648 805.652 136.115 805.193 135.548C803.132 130.463 800.492 126.718 799.919 125.8C799.287 124.796 797.322 125.466 797.807 126.621C799.062 129.57 801.088 133.595 803.028 136.241C803.115 136.448 803.201 136.656 803.288 136.871C803.478 137.349 803.652 137.836 803.816 138.321C804.154 138.88 804.041 138.967 803.487 138.585C802.301 138.776 800.89 136.122 800.413 135.444C799.893 134.703 799.469 133.898 799.036 133.109C798.058 131.347 797.096 129.578 796.126 127.808C795.46 126.591 793.468 127.667 794.135 128.886C795.694 131.724 797.027 134.935 799.131 137.47C800.395 138.985 802.595 141.472 804.95 140.786C805.045 140.754 805.123 140.722 805.21 140.69C805.339 141.232 805.85 141.678 806.578 141.447C808.396 140.873 810.155 140.172 811.843 139.335C812.103 139.2 812.259 139.033 812.345 138.849L812.346 138.849Z" fill="black"/>
<path d="M838.514 181.427C836.522 177.425 834.521 173.424 832.417 169.471C830.989 166.785 829.491 164.139 827.932 161.525C827.958 161.525 827.983 161.517 828.01 161.517C829.473 161.381 829.49 159.253 828.01 159.396C827.585 159.436 827.17 159.5 826.754 159.572C823.455 154.232 819.809 149.091 815.619 144.285C814.692 143.217 813.064 144.731 813.99 145.783C817.93 150.303 821.36 155.149 824.477 160.162C823.593 160.473 822.753 160.88 821.957 161.373C818.615 155.093 814.814 149.043 809.921 143.544C810.847 142.803 811.921 142.317 813.151 142.069C814.606 141.783 813.991 139.734 812.536 140.021C810.683 140.387 809.003 141.272 807.704 142.548C807.106 143.137 807.426 143.895 807.998 144.221C807.964 144.492 808.041 144.779 808.267 145.034C819.819 158.002 825.17 174.27 833.024 189.135C834.106 191.184 835.587 196.061 838.54 196.436C841.328 196.786 842.558 194.085 842.454 191.988C842.263 188.314 840.142 184.704 838.514 181.428L838.514 181.427ZM840.099 193.255C838.722 194.004 837.873 193.805 837.562 192.665C836.843 191.956 836.393 190.625 835.925 189.756C831.206 181.116 827.447 172.021 822.953 163.303C823.784 162.769 824.667 162.338 825.603 162.027C826.911 164.195 828.157 166.395 829.369 168.618C829.083 168.722 828.789 168.825 828.503 168.937C827.94 169.144 827.49 169.655 827.698 170.244C827.871 170.747 828.512 171.201 829.118 170.985C829.542 170.826 829.975 170.674 830.4 170.515C830.408 170.531 830.417 170.539 830.417 170.555C830.971 171.591 831.517 172.635 832.054 173.679C831.474 173.583 830.825 173.863 830.677 174.428C830.547 174.962 830.85 175.608 831.482 175.735C832.019 175.839 832.564 175.823 833.075 175.671C833.621 176.747 834.166 177.815 834.712 178.899H834.504C833.898 178.899 833.326 179.385 833.353 179.959C833.379 180.533 833.863 181.019 834.504 181.019H834.772C835.084 181.019 835.387 180.883 835.604 180.684C836.063 181.6 836.513 182.517 836.972 183.434C838.107 185.737 839.275 188.064 839.864 190.544C840.159 191.43 840.228 192.331 840.099 193.255L840.099 193.255Z" fill="black"/>
<path d="M847.181 160.321C848.948 159.587 850.723 158.854 852.489 158.121C852.827 157.985 853.096 157.539 853.061 157.204C852.325 149.816 845.995 142.993 841.423 137.198C836.704 131.22 831.534 126.375 823.532 124.461C822.45 124.206 821.835 125.306 822.216 126.007C822.199 126.191 822.243 126.39 822.372 126.597C829.429 138.107 837.188 149.234 845.596 159.938C845.995 160.449 846.557 160.576 847.181 160.321L847.181 160.321ZM825.446 127.267C832.538 129.77 836.988 135.014 841.371 140.777C843.665 143.79 845.934 146.859 847.943 150.047C848.852 151.489 849.978 153.147 850.307 154.805C850.609 156.343 850.566 156.343 849.207 157.173C848.566 157.563 847.778 157.842 847.016 158.113C839.24 148.174 832.053 137.884 825.446 127.267L825.446 127.267Z" fill="black"/>
<path d="M869.998 188.185C869.807 184.67 868.785 181.243 867.374 177.983C865.547 173.782 863.226 169.789 860.559 166.003C860.49 165.788 860.36 165.605 860.187 165.477C858.845 163.596 857.425 161.763 855.926 159.978C855.666 159.675 855.355 159.579 855.06 159.619C854.809 159.085 854.142 158.695 853.414 159.037C851.431 159.986 849.371 160.687 847.197 161.166C845.751 161.484 846.366 163.533 847.812 163.214C848.029 163.167 848.245 163.102 848.462 163.047C848.47 163.055 848.47 163.063 848.479 163.071C854.082 168.347 856.359 175.728 859.286 182.406C860.758 185.762 862.083 189.3 863.858 192.529C864.689 194.051 866.126 195.621 868.135 194.681C870.387 193.644 870.093 190.042 869.998 188.185L869.998 188.185ZM867.694 190.218C867.634 191.118 867.919 192.146 866.811 192.115C865.798 192.083 865.78 191.31 865.391 190.489C862.819 185.021 860.525 179.458 858.099 173.934C856.264 169.75 854.151 165.733 850.877 162.362C851.968 161.995 853.033 161.572 854.072 161.094C854.115 161.221 854.176 161.357 854.28 161.477C855.406 162.816 856.48 164.187 857.511 165.581C857.32 165.621 857.138 165.653 856.948 165.693C856.342 165.812 855.986 166.466 856.143 167C856.316 167.582 856.948 167.861 857.563 167.741C857.996 167.653 858.429 167.566 858.862 167.478C859.416 168.275 859.944 169.08 860.464 169.893H860.239C859.633 169.893 859.061 170.379 859.088 170.953C859.114 171.527 859.599 172.013 860.239 172.013H861.321C861.46 172.013 861.59 171.98 861.719 171.941C862.352 173.009 862.949 174.093 863.521 175.193C863.209 175.256 862.914 175.352 862.629 175.52C862.118 175.815 861.867 176.476 862.213 176.97C862.542 177.44 863.244 177.672 863.789 177.353C863.815 177.337 863.945 177.281 863.954 177.265C864.005 177.249 864.049 177.241 864.101 177.225H864.161C864.187 177.225 864.204 177.225 864.222 177.217C864.23 177.217 864.239 177.225 864.257 177.225C864.352 177.241 864.447 177.249 864.543 177.249C865.781 179.872 866.829 182.605 867.339 185.427C867.634 187.013 867.798 188.623 867.694 190.218L867.694 190.218Z" fill="black"/>
<path fill-rule="evenodd" clip-rule="evenodd" d="M1242.55 704.962C1240.05 699.706 1237.48 692.047 1233.07 688.844C1232.56 691.003 1227.76 688.009 1226.76 688.019C1226.69 687.46 1229.04 687.482 1227.54 686.778C1226.24 687.501 1226.55 683.921 1224.78 683.058C1225.86 683.225 1225.3 680.845 1224.78 678.925C1226.9 680.036 1227.29 676.142 1227.94 674.379C1224.09 670.427 1223.85 661.479 1217.28 662.394C1217.31 661.743 1218.28 662.07 1218.07 661.154C1214.53 660.961 1211.9 657.76 1211.75 654.541C1211.65 652.413 1213.18 650.499 1212.93 648.342C1212.68 646.038 1211.16 645.584 1210.17 643.796C1209.07 641.805 1208.77 638.952 1206.62 637.597H1204.64C1202.88 639.067 1200.35 644.063 1198.72 647.102C1192.96 657.866 1187.97 667.452 1182.93 676.032C1183.08 678.313 1183.08 678.296 1182.93 680.577C1174.38 686.504 1172.61 699.53 1166.34 707.853V709.507C1175.17 716.973 1189.01 726.623 1208.59 725.212C1216.78 724.621 1223.17 722.763 1230.7 719.012C1235.75 716.495 1243.9 712.012 1244.12 708.267C1244.19 707.169 1243.03 705.959 1242.55 704.962L1242.55 704.962ZM1188.46 717.772C1188.98 716.63 1186.9 716.354 1188.07 716.947C1186.34 718.32 1184.07 714.544 1182.54 715.708C1181.4 715.384 1181.55 713.708 1180.96 712.813C1179.08 712.165 1179.09 712.987 1177.41 712.401C1177.5 711.951 1178.19 712.12 1178.2 711.574C1177.04 712.065 1176.15 709.519 1174.64 710.75C1174.62 709.522 1173.72 708.594 1173.06 707.03C1175.2 702.302 1177.24 701.256 1177.4 696.285C1177.87 696.353 1177.74 697.04 1177.8 697.525C1179.74 694.873 1181.64 692.178 1182.54 688.433C1185.31 686.888 1189.46 682.495 1188.07 679.343C1192.57 668.496 1199.42 659.797 1203.86 647.933C1205.13 648.292 1205.09 647.297 1205.44 646.693C1208.29 648.808 1205.6 653.171 1206.23 657.024C1207.17 662.771 1210.86 666.086 1217.68 666.943C1217.86 669.43 1220.71 671.788 1222.02 674.383C1217.11 683.802 1222.84 694.425 1232.68 694.633C1235.45 698.76 1237.2 703.956 1240.18 707.858C1230.41 719.545 1205.33 725.682 1188.46 717.771L1188.46 717.772Z" fill="black"/>
<path fill-rule="evenodd" clip-rule="evenodd" d="M1212.54 671.073C1212.2 671.537 1210.49 669.935 1210.18 669.007C1207.87 668.723 1207.34 669.016 1205.44 668.181C1194.05 669.365 1192.17 689.241 1208.2 687.192C1214.46 685.438 1214.54 673.629 1212.54 671.073ZM1202.28 678.513C1202.28 674.044 1207.53 673.524 1210.18 676.859C1210.4 680.947 1208.82 683.16 1205.83 683.885C1204.28 682.578 1202.28 680.557 1202.28 678.513Z" fill="black"/>
<path fill-rule="evenodd" clip-rule="evenodd" d="M1186.48 691.323C1186.7 691.282 1186.94 691.021 1186.48 690.91C1185.07 691.695 1182.18 695.798 1183.33 697.935C1183.32 697.518 1182.64 697.415 1182.54 697.935C1182.16 709.767 1197.2 712.521 1200.3 702.895C1203.42 693.257 1194.44 689.732 1186.48 691.323ZM1190.43 703.308C1191.31 701.529 1189.33 700.741 1188.85 699.175C1188.75 695.331 1192.58 694.88 1195.96 695.869C1199.17 699.895 1194.44 706.859 1190.43 703.308Z" fill="black"/>
<path fill-rule="evenodd" clip-rule="evenodd" d="M1210.96 697.523C1210.96 697.294 1210.64 697.054 1210.57 697.523C1211.64 697.894 1209.74 698.52 1209.38 698.762C1209.34 698.299 1209.96 698.12 1209.38 697.938C1208.32 698.761 1207.3 698.864 1208.6 699.178C1205.91 700.555 1206.23 703.579 1205.44 706.203C1205.94 708.552 1207.16 711.56 1208.99 713.643C1216.11 718.358 1224.88 714.64 1223.6 702.897C1221.73 698.374 1214.69 696.506 1210.96 697.523ZM1214.91 711.161C1214.02 709.177 1212.22 708.356 1212.15 706.615C1211.91 700.786 1218.94 700.762 1220.05 704.962C1220.77 707.707 1219.39 711.147 1214.91 711.161L1214.91 711.161Z" fill="black"/>
<path d="M479.455 227.737C478.002 226.373 475.723 225.413 473.027 225.042C470.344 224.671 467.549 224.921 465.187 225.76C462.826 226.599 461.164 227.914 460.52 229.472C459.179 232.683 462.617 235.918 468.192 236.693C469.002 236.806 469.812 236.863 470.609 236.863C475.29 236.863 479.551 235.007 480.697 232.263C481.341 230.714 480.907 229.1 479.455 227.737ZM476.617 231.698C475.821 233.619 472.481 234.797 469.17 234.336C465.844 233.876 463.804 231.948 464.601 230.036C464.978 229.108 465.971 228.325 467.382 227.825C468.361 227.478 469.479 227.292 470.596 227.292C471.084 227.292 471.574 227.332 472.048 227.397C473.655 227.615 475.024 228.188 475.877 229.003C476.743 229.818 477.009 230.77 476.617 231.698L476.617 231.698Z" fill="black"/>
<path d="M466.098 249.199C465.231 248.384 463.862 247.803 462.241 247.585C460.62 247.359 458.943 247.513 457.533 248.013C456.107 248.514 455.116 249.304 454.724 250.24C453.914 252.169 455.982 254.121 459.321 254.581C459.81 254.654 460.299 254.686 460.788 254.686C463.596 254.686 466.154 253.573 466.853 251.927C466.964 251.652 467.021 251.37 467.021 251.088C467.02 250.426 466.712 249.78 466.098 249.199ZM462.772 251.362C462.506 251.991 461.402 252.387 460.313 252.233C459.209 252.08 458.538 251.443 458.789 250.805C459.027 250.265 459.865 249.901 460.787 249.901C460.941 249.901 461.095 249.909 461.263 249.934C461.794 250.006 462.241 250.2 462.52 250.466C462.814 250.733 462.898 251.055 462.772 251.362Z" fill="black"/>
<path d="M494.545 240.905C493.413 239.84 491.638 239.097 489.543 238.807C487.447 238.517 485.267 238.71 483.437 239.364C481.593 240.009 480.307 241.034 479.804 242.252C479.302 243.463 479.636 244.713 480.769 245.77C481.901 246.835 483.675 247.577 485.77 247.868C486.399 247.957 487.042 248.005 487.671 248.005C489.138 248.005 490.591 247.771 491.876 247.311C493.707 246.665 495.006 245.641 495.509 244.423C496.012 243.213 495.663 241.962 494.545 240.905ZM491.429 243.858C490.927 245.061 488.83 245.803 486.748 245.52C484.666 245.23 483.381 244.02 483.884 242.817C484.303 241.784 485.895 241.099 487.656 241.099C487.95 241.099 488.257 241.115 488.564 241.155C490.647 241.446 491.932 242.656 491.429 243.858Z" fill="black"/>
<path d="M534.369 240.437C521.276 223.129 495.552 210.688 463.807 206.282L461.766 206L436 267.969L451.649 263.798L451.65 266.517C451.65 269.381 455.688 271.713 460.649 271.713C465.61 271.713 469.633 269.381 469.633 266.517V258.997L481.077 255.947V272.366C481.077 275.811 485.939 278.62 491.92 278.62C497.886 278.62 502.749 275.812 502.749 272.366V250.169L535.179 241.519L534.369 240.437ZM498.558 248.619V272.365C498.558 274.479 495.582 276.198 491.921 276.198C488.26 276.198 485.271 274.479 485.271 272.365L485.269 252.161L465.442 257.447V266.516C465.442 268.049 463.29 269.292 460.649 269.292C457.993 269.292 455.842 268.049 455.842 266.516V260.013L442.093 263.676L461.096 217.974C484.263 222.549 503.377 231.771 515.325 244.15L498.558 248.619ZM519.153 243.132C506.633 230.085 486.499 220.371 462.09 215.609L464.87 208.928C493.725 213.294 517.169 224.654 529.677 240.324L519.153 243.132Z" fill="black"/>
<path d="M575.297 701.753C579.661 700 571.357 687.51 570.274 685.446C569.625 684.218 567.633 685.294 568.283 686.514C568.334 686.609 570.248 689.176 572.231 693.32C572.811 694.531 573.409 695.759 573.764 697.05C574.041 698.054 574.872 699.935 573.564 698.923C572.889 698.405 572.343 697.751 571.858 697.034C571.045 694.77 568.585 690.419 567.659 688.777C567.01 687.454 566.568 686.904 566.689 687.087C565.892 685.931 564.004 686.944 564.697 688.155C564.862 688.434 565.018 688.713 565.182 688.992C565.918 690.442 568.117 694.89 569.356 697.153C569.486 697.52 569.598 697.887 569.694 698.261C569.876 698.867 569.988 699.481 570.04 700.11C570.3 701.298 570.162 701.266 569.633 700.023C569.096 699.552 568.603 699.018 568.144 698.452C566.083 693.367 563.442 689.622 562.87 688.704C562.238 687.7 560.273 688.369 560.757 689.525C562.013 692.474 564.039 696.499 565.979 699.145C566.065 699.352 566.152 699.56 566.239 699.775C566.429 700.253 566.603 700.74 566.767 701.225C567.105 701.783 566.992 701.871 566.438 701.489C565.252 701.68 563.841 699.026 563.364 698.348C562.844 697.607 562.42 696.802 561.987 696.013C561.009 694.251 560.047 692.482 559.077 690.712C558.411 689.495 556.419 690.571 557.086 691.79C558.645 694.628 559.978 697.839 562.082 700.374C563.346 701.889 565.546 704.376 567.901 703.69C567.996 703.658 568.074 703.626 568.161 703.594C568.29 704.136 568.801 704.582 569.529 704.351C571.347 703.777 573.105 703.076 574.794 702.239C575.054 702.104 575.21 701.937 575.296 701.753L575.297 701.753Z" fill="black"/>
<path d="M601.465 744.331C599.473 740.329 597.472 736.328 595.368 732.375C593.94 729.689 592.442 727.043 590.883 724.429C590.909 724.429 590.934 724.421 590.961 724.421C592.424 724.285 592.441 722.157 590.961 722.3C590.536 722.34 590.121 722.404 589.705 722.476C586.406 717.136 582.76 711.995 578.569 707.189C577.643 706.121 576.015 707.635 576.941 708.687C580.881 713.207 584.31 718.053 587.428 723.066C586.544 723.377 585.704 723.783 584.908 724.277C581.566 717.997 577.765 711.947 572.872 706.448C573.798 705.707 574.872 705.22 576.102 704.973C577.556 704.687 576.941 702.638 575.487 702.925C573.634 703.291 571.954 704.176 570.655 705.452C570.057 706.041 570.377 706.799 570.949 707.125C570.914 707.396 570.992 707.683 571.218 707.938C582.77 720.906 588.121 737.174 595.975 752.039C597.057 754.088 598.538 758.965 601.491 759.34C604.279 759.69 605.509 756.988 605.405 754.892C605.214 751.218 603.093 747.607 601.465 744.332L601.465 744.331ZM603.05 756.159C601.673 756.908 600.824 756.709 600.512 755.569C599.794 754.86 599.344 753.529 598.876 752.66C594.156 744.02 590.398 734.925 585.904 726.207C586.735 725.673 587.618 725.242 588.554 724.931C589.862 727.099 591.108 729.299 592.32 731.522C592.034 731.626 591.74 731.729 591.454 731.841C590.891 732.048 590.441 732.559 590.649 733.148C590.822 733.651 591.463 734.105 592.069 733.889C592.493 733.73 592.926 733.578 593.351 733.419C593.359 733.435 593.368 733.443 593.368 733.458C593.922 734.495 594.468 735.539 595.005 736.583C594.425 736.487 593.776 736.767 593.628 737.332C593.498 737.866 593.801 738.512 594.433 738.639C594.97 738.743 595.515 738.727 596.026 738.575C596.572 739.651 597.117 740.719 597.663 741.803H597.455C596.849 741.803 596.277 742.289 596.303 742.863C596.33 743.437 596.814 743.923 597.455 743.923H597.723C598.035 743.923 598.338 743.787 598.555 743.588C599.014 744.504 599.464 745.421 599.923 746.338C601.058 748.641 602.226 750.968 602.815 753.448C603.11 754.334 603.179 755.235 603.049 756.159L603.05 756.159Z" fill="black"/>
<path d="M610.132 723.225C611.899 722.491 613.674 721.758 615.44 721.025C615.778 720.889 616.046 720.443 616.012 720.108C615.276 712.72 608.946 705.897 604.374 700.102C599.655 694.124 594.485 689.278 586.483 687.365C585.401 687.11 584.786 688.21 585.167 688.911C585.15 689.095 585.194 689.294 585.323 689.501C592.38 701.011 600.139 712.138 608.547 722.842C608.946 723.353 609.508 723.48 610.132 723.225L610.132 723.225ZM588.397 690.171C595.489 692.674 599.939 697.918 604.321 703.681C606.616 706.694 608.885 709.762 610.894 712.951C611.803 714.393 612.929 716.051 613.258 717.709C613.56 719.247 613.517 719.247 612.158 720.077C611.517 720.467 610.729 720.746 609.967 721.017C602.191 711.078 595.004 700.788 588.397 690.171L588.397 690.171Z" fill="black"/>
<path d="M632.949 751.089C632.758 747.574 631.736 744.146 630.325 740.887C628.498 736.686 626.177 732.693 623.51 728.907C623.441 728.692 623.311 728.508 623.138 728.381C621.795 726.5 620.376 724.667 618.877 722.882C618.617 722.579 618.306 722.483 618.011 722.523C617.76 721.989 617.093 721.599 616.365 721.941C614.382 722.89 612.322 723.591 610.148 724.069C608.702 724.388 609.317 726.437 610.763 726.118C610.979 726.07 611.196 726.006 611.412 725.951C611.421 725.959 611.421 725.967 611.43 725.975C617.033 731.251 619.31 738.632 622.237 745.31C623.709 748.666 625.033 752.204 626.809 755.433C627.64 756.955 629.077 758.525 631.086 757.585C633.338 756.548 633.044 752.945 632.949 751.088L632.949 751.089ZM630.645 753.121C630.585 754.022 630.87 755.05 629.762 755.019C628.748 754.987 628.731 754.213 628.342 753.393C625.769 747.925 623.475 742.362 621.05 736.838C619.215 732.654 617.102 728.637 613.828 725.266C614.919 724.899 615.984 724.476 617.023 723.998C617.066 724.125 617.127 724.261 617.231 724.381C618.357 725.72 619.431 727.09 620.461 728.485C620.271 728.525 620.089 728.557 619.899 728.597C619.293 728.716 618.937 729.37 619.094 729.904C619.267 730.486 619.899 730.765 620.514 730.645C620.947 730.557 621.38 730.47 621.813 730.382C622.367 731.179 622.895 731.984 623.415 732.797H623.19C622.584 732.797 622.012 733.283 622.039 733.857C622.065 734.431 622.549 734.917 623.19 734.917H624.272C624.411 734.917 624.541 734.884 624.67 734.845C625.303 735.913 625.9 736.997 626.472 738.097C626.16 738.16 625.865 738.256 625.58 738.424C625.069 738.718 624.818 739.38 625.164 739.874C625.493 740.344 626.195 740.575 626.74 740.257C626.766 740.241 626.896 740.185 626.905 740.169C626.956 740.153 627 740.145 627.052 740.129H627.112C627.138 740.129 627.155 740.129 627.173 740.121C627.181 740.121 627.19 740.129 627.207 740.129C627.303 740.145 627.398 740.153 627.493 740.153C628.732 742.775 629.78 745.509 630.29 748.331C630.584 749.917 630.749 751.527 630.645 753.122L630.645 753.121Z" fill="black"/>
<path d="M214.565 714.505C214.754 714.225 214.801 713.962 214.792 713.761C214.726 712.631 213.083 711.607 211.637 710.696L211.41 710.556C210.711 710.118 209.483 709.619 208.651 709.453C199.848 707.605 198.865 707.01 195.956 705.249C195.068 704.706 193.953 704.032 192.395 703.191C191.11 702.49 190.043 701.755 188.919 700.966C188.116 700.406 187.285 699.828 186.359 699.259C185.905 698.987 185.319 698.724 184.753 698.47C184.214 698.234 183.657 697.989 183.26 697.752C182.467 697.262 181.267 696.806 179.991 696.325C178.763 695.852 177.488 695.37 176.751 694.906C176.155 694.529 175.881 694.144 175.608 693.767C175.22 693.224 174.814 692.673 173.633 692.34C172.169 691.929 170.61 691.885 169.174 692.191C169.184 692.13 169.174 692.069 169.155 692.007C169.099 691.859 167.757 688.39 164.999 687.751C161.976 687.051 145.935 693.794 137.5 702.893C132.701 708.069 131.397 709.593 130.406 713.604C130.321 713.955 130.273 714.436 130.264 715.015V715.032V715.041C130.16 720.024 132.607 732.259 133.372 735.332C133.542 736.024 134.175 736.532 134.94 736.602L138.086 736.882C138.161 736.891 138.236 736.891 138.303 736.891C138.955 736.891 139.578 736.628 140.013 736.181C140.069 736.208 140.126 736.225 140.192 736.225C140.267 736.225 140.352 736.207 140.428 736.164C141.543 735.568 142.11 735.708 142.95 735.927C143.489 736.067 144.094 736.217 144.943 736.226C146.02 736.226 147.059 736.173 148.051 736.111C148.873 736.068 149.704 736.015 150.601 735.997C154.389 735.936 159.103 735.629 163.193 735.174C164.194 735.06 165.224 734.798 166.225 734.535C167.265 734.263 168.332 733.983 169.4 733.869C170.372 733.764 171.365 733.799 172.328 733.826C173.556 733.861 174.831 733.905 176.106 733.668C176.711 733.554 177.221 733.432 177.703 733.3C177.684 733.94 177.647 734.597 177.609 735.253C177.363 739.728 177.08 744.799 180.896 745.447C180.971 745.465 181.056 745.474 181.131 745.474C181.377 745.474 181.604 745.395 181.783 745.229C182.747 744.379 182.256 741.218 181.377 736.147C181.169 734.982 180.952 733.712 180.781 732.521C181.301 732.442 181.858 732.398 182.519 732.416C183.955 732.442 185.297 732.031 186.6 731.636C187.602 731.33 188.641 731.014 189.671 730.918C190.72 730.812 191.721 730.953 192.778 731.093C194.082 731.268 195.433 731.452 196.916 731.181C197.228 731.128 197.587 731.023 197.965 730.909C198.72 730.69 199.571 730.453 200.109 730.567C202.263 731.058 206.41 730.147 209.15 729.543L210.538 729.385C210.557 730.191 210.519 731.014 210.482 731.899C210.444 732.705 210.406 733.554 210.406 734.491V734.579C210.425 736.033 210.274 739.659 208.489 741.9C207.44 743.214 207.601 747.032 208.498 749.037C208.886 749.896 209.377 750.377 209.962 750.456C210.076 750.473 210.189 750.482 210.302 750.482C212.513 750.482 213.155 747.269 213.552 745.307L213.59 745.105C214.535 740.42 214.771 738.879 214.771 737.25C214.771 736.672 214.78 735.954 214.79 735.104C214.818 732.862 214.856 729.797 214.771 726.233C214.761 725.69 214.922 724.543 215.073 723.527C215.206 722.599 215.338 721.723 215.347 721.233C215.357 720.348 215.47 719.551 215.565 718.842C215.812 717.115 215.982 715.714 214.565 714.505L214.565 714.505ZM173.36 693.163C174.21 693.399 174.465 693.758 174.824 694.24C175.117 694.642 175.476 695.133 176.222 695.606C177.044 696.123 178.357 696.631 179.633 697.112C180.813 697.559 182.022 698.023 182.74 698.461C183.184 698.732 183.779 698.995 184.346 699.24C184.885 699.476 185.452 699.721 185.839 699.958C186.746 700.51 187.568 701.088 188.352 701.64C189.448 702.402 190.581 703.199 191.913 703.916C193.452 704.748 194.548 705.414 195.437 705.957C198.45 707.787 199.47 708.4 208.435 710.283C209.153 710.432 210.267 710.878 210.872 711.255L211.099 711.404C212.11 712.035 213.792 713.094 213.839 713.786C213.848 713.874 213.82 714.013 213.546 714.233C213.404 714.347 212.96 714.688 212.497 715.073C211.561 715.844 210.419 716.396 209.181 716.658C208.293 716.851 207.395 717.035 206.782 717.14C205.233 717.402 204.43 717.254 203.57 717.087C202.748 716.93 201.813 716.746 200.198 716.939C198.677 717.114 197.128 717.245 195.626 717.368C194.002 717.499 192.32 717.639 190.667 717.84C188.91 718.059 187.247 718.506 185.642 718.944C184.556 719.233 183.441 719.539 182.307 719.767C181.731 719.881 181.268 720.161 180.956 720.573C180.343 720.809 179.776 721.151 179.228 721.483C178.765 721.764 178.331 722.027 177.868 722.227C174.165 723.892 168.223 722.884 164.246 722.771C158.39 722.596 152.486 721.816 146.638 721.912C143.558 721.956 139.374 720.923 137.343 718.996C138.033 718.103 138.694 717.236 139.336 716.378C139.789 715.774 140.243 715.178 140.706 714.583C143.238 711.64 146.61 707.909 149.019 705.404C151.333 702.987 158.569 698.538 163.651 695.552C165.011 694.86 166.447 694.168 167.987 693.467C169.591 692.769 171.546 692.655 173.36 693.163L173.36 693.163ZM139.353 735.558C139.06 735.873 138.635 736.03 138.192 735.996L135.046 735.715C134.687 735.68 134.384 735.444 134.309 735.12C133.591 732.239 131.229 720.468 131.211 715.449C132.609 715.668 134.309 717.385 135.396 719.049C135.481 719.189 135.641 719.259 135.802 719.259C135.887 719.259 135.972 719.242 136.048 719.198C136.275 719.075 136.341 718.804 136.208 718.594C135.774 717.928 133.601 714.802 131.249 714.548C131.268 714.25 131.305 713.987 131.363 713.777C132.269 710.134 133.318 708.768 138.258 703.443C146.722 694.318 162.374 688.021 164.812 688.573C166.635 688.993 167.778 691.121 168.156 691.945C167.391 692.374 165.492 693.451 163.14 694.826C150.283 701.376 145.078 707.393 139.957 714.084C137.907 716.475 136.292 718.524 136.292 719.032V719.05V719.058C136.321 719.969 138.484 730.198 139.656 734.419C139.739 734.839 139.636 735.242 139.352 735.557L139.353 735.558ZM175.938 732.799C174.767 733.018 173.605 732.983 172.377 732.939C171.385 732.912 170.356 732.878 169.307 732.991C168.163 733.114 167.058 733.403 165.982 733.683C164.971 733.946 164.026 734.191 163.091 734.296C159.029 734.752 154.353 735.058 150.594 735.11C149.687 735.128 148.836 735.171 147.996 735.224C146.975 735.285 146.003 735.338 144.945 735.33C144.227 735.33 143.698 735.19 143.197 735.067C142.413 734.865 141.667 734.69 140.562 735.11C140.618 734.812 140.618 734.515 140.533 734.209C140.174 732.921 139.749 731.178 139.324 729.339C140.939 729.418 141.317 730.425 141.695 732.045C141.893 732.877 142.092 733.735 142.649 734.305C142.942 734.603 143.376 734.725 143.792 734.629C144.208 734.532 144.529 734.235 144.624 733.84C144.718 733.499 144.784 733.105 144.86 732.702C145.19 730.837 145.55 729.505 147.089 729.313C148.383 729.155 150.405 729.392 152.36 729.619C154.599 729.882 156.706 730.127 158.019 729.855C159.171 729.619 160.324 729.435 161.439 729.251C163.81 728.866 166.049 728.498 168.288 727.736C168.864 727.543 170.007 727.736 170.932 727.894C171.509 727.99 172.047 728.086 172.481 728.095C172.878 728.104 173.322 728.104 173.785 728.095C174.626 728.086 175.495 728.069 176.25 728.156C177.479 728.332 177.733 730.127 177.714 732.36C177.204 732.527 176.618 732.677 175.938 732.799ZM208.953 728.683C206.459 729.235 202.284 730.145 200.357 729.707C199.563 729.523 198.58 729.804 197.702 730.058C197.353 730.154 197.022 730.251 196.739 730.303C195.416 730.548 194.198 730.382 192.922 730.206C191.855 730.058 190.75 729.908 189.578 730.022C188.444 730.136 187.358 730.46 186.309 730.775C185.015 731.169 183.796 731.537 182.54 731.511C181.831 731.493 181.217 731.546 180.66 731.625C180.395 729.619 180.31 727.938 180.726 727.448C183.04 727.246 189.378 726.887 191.797 726.773C193.875 726.677 196 726.126 198.06 725.582C200.327 724.996 202.65 724.391 204.955 724.383C204.994 724.418 205.04 724.444 205.088 724.47C205.607 724.672 206.524 724.645 207.856 724.584C208.404 724.558 209.206 724.523 209.518 724.567C210.142 725.994 210.406 727.247 210.501 728.499L208.953 728.683ZM214.64 718.743C214.545 719.47 214.432 720.293 214.422 721.23C214.413 721.668 214.281 722.553 214.158 723.42C213.997 724.514 213.827 725.644 213.846 726.257C213.921 729.804 213.893 732.87 213.865 735.102C213.855 735.952 213.846 736.679 213.846 737.257C213.846 738.825 213.619 740.331 212.684 744.955L212.646 745.156C212.297 746.899 211.711 749.824 210.124 749.605C209.954 749.579 209.67 749.334 209.387 748.721C208.546 746.829 208.48 743.431 209.264 742.441C211.153 740.068 211.399 736.503 211.37 734.507C211.37 733.587 211.408 732.747 211.445 731.95C211.559 729.322 211.663 727.054 210.34 724.129C210.132 723.657 209.453 723.674 207.818 723.744C207.478 723.762 207.09 723.78 206.722 723.788C206.647 723.691 206.533 723.621 206.392 723.604C203.473 723.306 200.592 724.059 197.805 724.786C195.708 725.329 193.724 725.846 191.75 725.942C189.322 726.056 182.965 726.423 180.641 726.616C180.358 726.642 180.112 726.765 179.933 726.984C179.385 727.632 179.697 731.853 179.688 731.853C179.688 731.853 180.216 734.962 180.444 736.293C180.953 739.244 181.823 744.193 181.086 744.596C178.063 744.079 178.328 739.42 178.554 735.304C178.601 734.533 178.639 733.763 178.658 733.036C178.686 733.027 178.696 732.108 178.667 732.117C178.658 729.568 178.243 727.589 176.391 727.326C175.55 727.221 174.653 727.239 173.774 727.256C173.33 727.265 172.905 727.274 172.518 727.256C172.159 727.247 171.649 727.16 171.11 727.072C170.024 726.888 168.786 726.678 167.974 726.958C165.81 727.694 163.609 728.053 161.286 728.438C160.162 728.622 158.991 728.815 157.829 729.052C156.686 729.288 154.551 729.034 152.492 728.798C150.47 728.561 148.383 728.316 146.975 728.491C144.614 728.781 144.226 730.987 143.933 732.608C143.867 732.993 143.801 733.352 143.716 733.676C143.687 733.772 143.612 733.807 143.565 733.816C143.518 733.824 143.432 733.833 143.357 733.754C142.969 733.361 142.8 732.651 142.62 731.898C142.261 730.374 141.817 728.483 139.116 728.483C138.388 725.278 137.698 721.941 137.378 720.241C141.723 723.368 148.175 722.921 153.352 723.236C159.738 723.63 166.132 723.832 172.527 723.823C174.086 723.823 175.692 723.797 177.203 723.42C178.856 723.009 179.905 721.923 181.435 721.371C181.539 721.336 181.614 721.266 181.671 721.187C181.841 720.907 182.115 720.74 182.493 720.662C183.654 720.425 184.798 720.118 185.893 719.821C187.471 719.392 189.095 718.954 190.777 718.744C192.411 718.542 194.083 718.403 195.699 718.272C197.211 718.149 198.769 718.018 200.309 717.834C201.773 717.658 202.548 717.816 203.37 717.973C204.276 718.149 205.212 718.333 206.94 718.035C207.563 717.929 208.48 717.736 209.378 717.544C210.766 717.246 212.061 716.634 213.109 715.758C213.393 715.522 213.657 715.311 213.875 715.145C214.988 716.046 214.865 717.088 214.639 718.743L214.64 718.743Z" fill="black"/>
<path d="M147.646 714.349C147.391 714.375 147.202 714.594 147.231 714.83C147.24 714.9 147.269 714.97 147.306 715.023C147.117 714.988 146.928 715.059 146.824 715.216C146.447 715.742 146.512 716.319 146.985 716.713C147.297 716.976 147.788 717.134 148.279 717.134C148.657 717.134 149.025 717.037 149.309 716.819C150.065 716.241 149.895 715.636 149.791 715.4C149.46 714.682 148.401 714.27 147.646 714.349ZM148.704 716.144C148.468 716.328 147.873 716.284 147.608 716.057C147.542 716.004 147.448 715.926 147.608 715.697C147.712 715.549 147.712 715.356 147.608 715.216C147.655 715.225 147.703 715.225 147.75 715.225C148.165 715.19 148.779 715.452 148.911 715.742C148.94 715.785 148.997 715.917 148.704 716.144Z" fill="black"/>
<path d="M167.191 714.735C167.05 714.805 166.747 714.884 166.454 714.954C165.661 715.155 164.763 715.374 164.489 715.987C164.404 716.189 164.348 716.513 164.603 716.915C164.858 717.318 165.255 717.555 165.67 717.555H165.746C166.133 717.528 166.454 717.31 166.596 716.986C166.747 716.635 166.652 716.242 166.341 715.891C166.474 715.856 166.596 715.83 166.69 715.804C167.059 715.707 167.38 715.628 167.616 715.514C167.852 715.4 167.938 715.138 167.815 714.928C167.711 714.7 167.427 714.621 167.191 714.735ZM165.689 716.67C165.623 716.679 165.519 716.627 165.425 716.468C165.378 716.39 165.359 716.329 165.368 716.311C165.387 716.276 165.434 716.232 165.491 716.197C165.501 716.276 165.548 716.354 165.605 716.424C165.727 716.539 165.745 716.627 165.689 716.67Z" fill="black"/>
<path d="M166.993 705.485C167.201 705.634 167.493 705.608 167.654 705.416C167.758 705.293 167.862 705.249 167.947 705.284C168.032 705.32 168.079 705.399 168.07 705.433C168.06 705.469 167.937 705.564 167.597 705.608C166.984 705.669 166.294 705.424 165.944 705.013C165.727 704.759 165.68 704.478 165.794 704.181C165.888 703.954 165.755 703.7 165.52 703.621C165.274 703.533 165 703.656 164.915 703.875C164.68 704.461 164.783 705.057 165.208 705.556C165.7 706.134 166.578 706.502 167.419 706.502C167.523 706.502 167.617 706.493 167.712 706.484C168.77 706.37 168.977 705.81 169.015 705.574C169.091 705.136 168.798 704.68 168.335 704.488C167.948 704.33 167.381 704.357 166.927 704.873C166.756 705.056 166.794 705.337 166.993 705.485Z" fill="black"/>
<path d="M173.255 698.673C173.482 698.673 173.689 698.655 173.878 698.621C174.7 698.454 175.172 697.955 175.125 697.281C175.115 697.071 174.936 696.904 174.718 696.878C174.614 696.87 174.51 696.87 174.406 696.87H174.246C173.991 696.843 173.754 697.018 173.727 697.255C173.708 697.439 173.802 697.605 173.963 697.684C173.916 697.701 173.868 697.727 173.802 697.745C173.103 697.938 172.159 697.675 171.922 697.482C171.96 697.456 172.017 697.403 172.13 697.351C172.357 697.237 172.442 696.966 172.319 696.756C172.196 696.545 171.904 696.466 171.677 696.58C170.826 697.018 170.921 697.535 171.006 697.745C171.234 698.366 172.339 698.673 173.255 698.673Z" fill="black"/>
<path d="M179.328 718.483C179.536 718.483 179.753 718.439 179.989 718.316C180.169 718.229 180.263 718.045 180.235 717.861C180.178 717.563 180.036 717.396 179.876 717.204L179.753 717.292C179.8 717.231 179.838 717.161 179.847 717.081C179.885 716.845 179.697 716.626 179.441 716.591C178.619 716.494 178.326 716.897 178.232 717.072C178.052 717.423 178.166 717.886 178.506 718.185C178.695 718.351 178.988 718.483 179.328 718.483ZM179.319 717.458C179.404 717.467 179.489 717.458 179.564 717.423L179.346 717.607C179.281 717.616 179.233 717.598 179.186 717.571C179.12 717.528 179.092 717.466 179.073 717.466C179.092 717.458 179.158 717.44 179.319 717.458Z" fill="black"/>
<path d="M189.106 714.288C189.182 714.63 189.494 714.893 189.994 715.024C190.192 715.076 190.466 715.12 190.74 715.12C191.09 715.12 191.449 715.05 191.666 714.848C191.874 714.656 191.978 714.314 191.959 713.938C191.93 713.561 191.77 713.246 191.525 713.071C191.024 712.72 190.391 712.94 189.928 713.106C189.795 713.149 189.673 713.202 189.56 713.22C189.305 713.272 189.144 713.509 189.21 713.746C189.087 713.964 189.078 714.148 189.106 714.288ZM190.202 713.999C190.231 713.981 190.258 713.955 190.277 713.929C190.457 713.868 190.873 713.718 190.948 713.771C191.024 713.85 191.043 714.156 191.033 714.209C190.854 714.297 190.287 714.227 190.079 714.113C190.098 714.087 190.136 714.052 190.202 713.999Z" fill="black"/>
<path d="M183.56 704.076C183.758 704.076 183.957 704.04 184.155 703.962C184.278 703.918 184.373 703.831 184.42 703.717C184.467 703.602 184.467 703.48 184.41 703.375C184.231 703.016 183.986 702.876 183.739 702.841C183.89 702.762 183.985 702.604 183.975 702.429C183.956 702.184 183.73 702.018 183.466 702.026C182.7 702.088 182.455 702.517 182.379 702.692C182.238 703.051 182.36 703.471 182.682 703.76C182.918 703.962 183.23 704.076 183.56 704.076Z" fill="black"/>
<path d="M204.097 714.778C204.257 714.778 204.399 714.743 204.531 714.7C205.032 714.498 205.334 713.999 205.193 713.587C205.127 713.386 204.853 712.931 203.832 713.123C203.691 713.149 203.568 713.237 203.511 713.35C203.37 713.368 203.199 713.429 203.048 713.613C202.935 713.753 202.925 713.937 203.01 714.086C203.313 714.603 203.728 714.778 204.097 714.778Z" fill="black"/>
</svg>
