<svg width="50" height="47" viewBox="0 0 50 47" fill="none" xmlns="http://www.w3.org/2000/svg">
<path d="M9.5806 26.0693C9.28997 26.0697 9.03015 25.8854 8.92727 25.6077L7.70627 22.2862C7.58818 21.9217 7.77273 21.5273 8.12421 21.3926C8.4757 21.2583 8.86802 21.4323 9.01254 21.7866L10.2335 25.106V25.1056C10.2988 25.2829 10.2928 25.4795 10.2163 25.6523C10.1399 25.8248 9.99934 25.9591 9.826 26.0258C9.74754 26.0549 9.66427 26.0697 9.5806 26.0693Z" fill="black"/>
<path d="M22.6842 46.4282C18.1961 46.4266 13.8093 45.064 10.0787 42.5117C6.34805 39.9598 3.44078 36.3336 1.72459 32.091C0.00838891 27.8489 -0.439569 23.1808 0.437489 18.6781C1.31421 14.1755 3.47675 10.0398 6.65099 6.79385C9.82564 3.54857 13.8693 1.33863 18.2717 0.444505C22.674 -0.449619 27.2362 0.0116089 31.3814 1.76986C35.5272 3.52844 39.0701 6.50511 41.5622 10.3234C44.0542 14.1416 45.3837 18.6303 45.3821 23.2215C45.3821 23.8874 45.352 24.5619 45.2928 25.2258C45.258 25.6186 44.9185 25.9077 44.5346 25.8721C44.1511 25.8365 43.868 25.4892 43.9028 25.0964C43.9585 24.4755 43.9865 23.8445 43.9865 23.221V23.2214C43.9913 18.4133 42.4421 13.7387 39.5801 9.92493C36.7181 6.11116 32.7045 3.37207 28.1624 2.13479C23.6211 0.897083 18.8075 1.23008 14.4705 3.08167C10.1334 4.93366 6.516 8.20065 4.18213 12.3736C1.84826 16.547 0.928267 21.3924 1.56562 26.1556C2.20294 30.9196 4.36189 35.3337 7.70625 38.7119C11.0502 42.0899 15.3926 44.2421 20.0566 44.8335C24.7209 45.4253 29.4451 44.4227 33.4943 41.9822C33.8258 41.7811 34.2537 41.8934 34.4499 42.2325C34.6464 42.572 34.5368 43.0098 34.2053 43.2105C30.7156 45.3192 26.7368 46.43 22.684 46.4272L22.6842 46.4282Z" fill="black"/>
<path d="M22.6842 43.4863C17.4287 43.4842 12.3897 41.3459 8.67464 37.5428C4.96041 33.7397 2.87466 28.5826 2.87671 23.2062C2.87871 17.8296 4.96841 12.6744 8.68591 8.87378C12.4037 5.07354 17.4443 2.93973 22.6996 2.94182C27.9549 2.94392 32.9941 5.08172 36.7091 8.8849C40.4242 12.6881 42.5099 17.8447 42.5079 23.2215C42.5079 23.7556 42.4843 24.3101 42.4338 24.9674C42.4038 25.3606 42.0679 25.6542 41.684 25.6235C41.2997 25.5928 41.0127 25.2492 41.0427 24.856C41.0903 24.2363 41.1123 23.7137 41.1123 23.2214C41.1155 19.4921 40.0375 15.8453 38.0143 12.7431C35.991 9.64026 33.1139 7.22147 29.7471 5.79211C26.38 4.36274 22.674 3.98719 19.098 4.71293C15.5222 5.43866 12.2372 7.23289 9.65826 9.86882C7.07977 12.5052 5.32309 15.8643 4.61052 19.522C3.89834 23.1797 4.26223 26.9709 5.65657 30.4165C7.05087 33.8624 9.41323 36.808 12.4441 38.8803C15.4749 40.9527 19.0383 42.0584 22.6841 42.0584C25.972 42.0629 29.1998 41.1578 32.0257 39.439C32.3572 39.2371 32.7855 39.3476 32.9833 39.6867C33.1807 40.0254 33.0722 40.4641 32.7411 40.666C29.6982 42.516 26.2233 43.4903 22.684 43.4861L22.6842 43.4863Z" fill="black"/>
<path d="M33.8519 43.3164C33.6049 43.3168 33.3759 43.1833 33.2506 42.9654L22.087 23.5774C21.9545 23.3468 21.9589 23.0601 22.0982 22.834C22.2347 22.6051 22.4877 22.4765 22.7483 22.5035L44.6574 24.453H44.6578C45.0417 24.4874 45.3259 24.8335 45.2927 25.2263C45.2591 25.619 44.9208 25.9098 44.5369 25.8758L23.9745 24.0455L34.4565 42.2404C34.5835 42.4612 34.5855 42.7348 34.4614 42.9572C34.3373 43.1795 34.1059 43.3167 33.8557 43.3167L33.8519 43.3164Z" fill="black"/>
<path d="M38.6778 46.2322C38.4312 46.2326 38.2031 46.0999 38.077 45.8832L26.8201 26.4983C26.6856 26.2673 26.69 25.9786 26.8305 25.7517C26.9678 25.5211 27.2232 25.3929 27.4855 25.4233L49.3699 27.5369C49.7474 27.5746 50.0264 27.9141 49.998 28.3016C49.0869 40.4951 39.4155 45.924 39.0035 46.1474V46.147C38.903 46.2022 38.7913 46.2317 38.6776 46.2326L38.6778 46.2322ZM28.7209 26.9752L38.9204 44.5347C40.9229 43.2147 47.5527 38.1817 48.5491 28.8886L28.7209 26.9752Z" fill="black"/>
<path d="M37.2021 43.6897C36.8826 43.6901 36.6036 43.4685 36.5247 43.1519C36.4463 42.8354 36.5876 42.504 36.8682 42.3484C45.0862 37.7913 45.8131 28.0265 45.8196 27.929C45.8292 27.7393 45.9133 27.5616 46.053 27.4363C46.1927 27.311 46.376 27.2491 46.5614 27.2647C46.9453 27.2901 47.2367 27.6288 47.2123 28.0219C47.1851 28.4544 46.4449 38.6648 37.5339 43.6041C37.4322 43.6606 37.3178 43.6901 37.2021 43.6897Z" fill="black"/>
<path d="M41.8805 32.9021C41.5546 32.9021 41.272 32.6715 41.1999 32.3463L40.6975 30.0769C40.6511 29.8902 40.6803 29.692 40.7788 29.5277C40.8769 29.3635 41.0362 29.2468 41.2199 29.2042C41.4037 29.1616 41.5963 29.1968 41.754 29.3021C41.9121 29.4073 42.0218 29.5732 42.0582 29.762L42.5614 32.0314C42.6031 32.2165 42.5711 32.4106 42.4722 32.5716C42.3733 32.7321 42.2164 32.846 42.035 32.8882C41.9842 32.8984 41.9321 32.9029 41.8805 32.9021Z" fill="black"/>
<path d="M37.8969 36.5392C37.541 36.54 37.2416 36.2664 37.202 35.9044C37.1627 35.5423 37.3961 35.2082 37.7436 35.1291L39.9619 34.6151C40.3378 34.5279 40.7113 34.7691 40.7966 35.1537C40.8818 35.5383 40.646 35.9204 40.2701 36.0076L38.0519 36.5224C38.001 36.5335 37.949 36.5392 37.8969 36.5392Z" fill="black"/>
<path d="M35.6689 33.0017C35.1029 33.0017 34.5596 32.7719 34.1589 32.3624C33.7586 31.9528 33.5336 31.3971 33.5332 30.818C33.5332 30.2385 33.7582 29.6827 34.1585 29.2732C34.5588 28.8632 35.1021 28.6331 35.6681 28.6331C36.2346 28.6331 36.7774 28.8632 37.1781 29.2728C37.5784 29.6824 37.8034 30.2381 37.8034 30.8172C37.803 31.3963 37.5776 31.9516 37.1777 32.3608C36.7774 32.7704 36.2349 33.001 35.6688 33.0018L35.6689 33.0017ZM35.6689 30.0615C35.3699 30.0615 35.1005 30.2462 34.9864 30.5292C34.8719 30.8118 34.9355 31.1374 35.1473 31.3537C35.3591 31.5699 35.6773 31.6342 35.9536 31.5167C36.2298 31.3995 36.4095 31.1235 36.4095 30.8171C36.4091 30.6165 36.3311 30.4244 36.1921 30.2823C36.0536 30.1406 35.8651 30.0611 35.6689 30.0615Z" fill="black"/>
<path d="M13.6728 36.2268C13.0038 36.2272 12.3621 35.9552 11.8889 35.4715C11.4158 34.9875 11.1499 34.3313 11.1499 33.647C11.1495 32.9627 11.4154 32.3061 11.8881 31.8221C12.3613 31.338 13.0031 31.066 13.672 31.066C14.3409 31.066 14.9826 31.3376 15.4554 31.8217C15.9286 32.3058 16.1944 32.9619 16.1944 33.6462C16.1936 34.3306 15.9274 34.9858 15.455 35.47C14.9822 35.9537 14.3413 36.2256 13.6727 36.2268L13.6728 36.2268ZM13.6728 32.494C13.2168 32.494 12.8057 32.7746 12.6311 33.2054C12.4566 33.6363 12.5531 34.1323 12.8753 34.4623C13.1976 34.792 13.6824 34.8907 14.1035 34.7117C14.5246 34.5332 14.7993 34.1126 14.7989 33.6461C14.7977 33.0105 14.2941 32.4952 13.6728 32.494Z" fill="black"/>
<path d="M31.6639 17.9668C30.5101 17.9664 29.404 17.4975 28.5885 16.6628C27.7727 15.8285 27.3146 14.6965 27.3146 13.5161C27.315 12.3362 27.7734 11.2042 28.5889 10.3699C29.4048 9.53568 30.5113 9.0667 31.6647 9.0667C32.8184 9.0667 33.9246 9.53564 34.7404 10.3704C35.5559 11.2046 36.0143 12.3366 36.0143 13.5166C36.0131 14.6965 35.5543 15.8277 34.7385 16.6619C33.923 17.4962 32.8173 17.9656 31.664 17.9667L31.6639 17.9668ZM31.6639 10.4945C30.8804 10.4945 30.129 10.8131 29.5753 11.3799C29.0213 11.9472 28.7102 12.7159 28.7102 13.5174C28.7102 14.3189 29.0217 15.0873 29.5757 15.6541C30.1298 16.2209 30.8812 16.5391 31.6647 16.5391C32.4482 16.5391 33.1996 16.2205 33.7536 15.6537C34.3076 15.0869 34.6187 14.3186 34.6187 13.5166C34.6179 12.7155 34.3061 11.9472 33.7524 11.3804C33.1984 10.814 32.4473 10.4953 31.6639 10.4945Z" fill="black"/>
<path d="M21.8469 13.189C21.5695 13.1894 21.3181 13.0211 21.2072 12.7606L19.5823 8.96323C19.4418 8.60527 19.6051 8.19818 19.9506 8.04378C20.2961 7.88938 20.6988 8.04378 20.8605 8.39231L22.4854 12.1906C22.64 12.5518 22.479 12.9724 22.1259 13.1305C22.0383 13.1698 21.943 13.1898 21.8469 13.189Z" fill="black"/>
<path d="M15.497 19.42C14.26 19.42 13.0735 18.9175 12.1987 18.0222C11.3239 17.1273 10.8327 15.9139 10.8327 14.6483C10.8327 13.3828 11.324 12.1689 12.1987 11.2739C13.0734 10.379 14.2599 9.87611 15.497 9.87611C16.734 9.87611 17.9205 10.379 18.7953 11.2739C19.6701 12.1688 20.1613 13.3827 20.1613 14.6483C20.1601 15.9133 19.668 17.1261 18.7937 18.0205C17.919 18.9154 16.7336 19.4183 15.497 19.42ZM15.497 11.3039C14.6299 11.3039 13.7984 11.6561 13.1855 12.2836C12.5726 12.9106 12.2279 13.7613 12.2279 14.6483C12.2279 15.535 12.5726 16.3856 13.1855 17.0131C13.7984 17.6402 14.6299 17.9924 15.497 17.9924C16.3641 17.9924 17.1952 17.6402 17.8085 17.0131C18.4214 16.3857 18.7657 15.535 18.7657 14.6483C18.7649 13.7617 18.4202 12.9119 17.8073 12.2848C17.1944 11.6578 16.3637 11.3051 15.497 11.3039Z" fill="black"/>
<path d="M22.6842 40.1029C21.6365 40.1029 20.6322 39.6774 19.8915 38.9193C19.1509 38.1616 18.735 37.1341 18.735 36.0627C18.735 34.9913 19.1509 33.9633 19.8915 33.2056C20.6321 32.448 21.6365 32.0224 22.6842 32.0224C23.7315 32.0224 24.7359 32.448 25.4765 33.2056C26.2171 33.9633 26.633 34.9913 26.633 36.0627C26.6322 37.1337 26.2159 38.1608 25.4753 38.918C24.735 39.6757 23.731 40.1016 22.6842 40.1029ZM22.6842 33.4501C22.0068 33.4501 21.3571 33.7253 20.8783 34.2152C20.3995 34.7054 20.1305 35.3697 20.1305 36.0627C20.1305 36.7556 20.3995 37.4199 20.8783 37.9101C21.3571 38.4 22.0069 38.6752 22.6842 38.6752C23.3612 38.6752 24.0109 38.4 24.4897 37.9101C24.9689 37.4199 25.2379 36.7556 25.2379 36.0627C25.2371 35.3701 24.9681 34.7059 24.4893 34.216C24.0105 33.7262 23.3611 33.4505 22.6842 33.4501Z" fill="black"/>
<path d="M19.7542 30.823C19.1381 30.823 18.5472 30.5728 18.1113 30.1268C17.6757 29.6812 17.4311 29.0762 17.4311 28.446C17.4311 27.8157 17.6757 27.2112 18.1113 26.7652C18.5472 26.3196 19.1382 26.069 19.7542 26.069C20.3707 26.069 20.9615 26.3196 21.3971 26.7652C21.8331 27.2112 22.0777 27.8158 22.0777 28.446C22.0769 29.0763 21.8319 29.6803 21.3963 30.1259C20.9607 30.5715 20.3702 30.8222 19.7542 30.823ZM19.7542 27.4966C19.3791 27.4966 19.0408 27.728 18.8971 28.0826C18.7534 28.4373 18.8326 28.8456 19.098 29.1172C19.3635 29.3887 19.7626 29.4702 20.1097 29.3232C20.4564 29.1762 20.6821 28.8301 20.6821 28.4459C20.6817 27.9221 20.2666 27.4974 19.7542 27.4966Z" fill="black"/>
<path d="M14.6392 26.6701C13.9282 26.6705 13.2465 26.3817 12.7437 25.8674C12.2413 25.3534 11.9586 24.6559 11.9586 23.929C11.9582 23.2016 12.2404 22.5041 12.7433 21.9897C13.2457 21.4758 13.9275 21.1866 14.6384 21.1866C15.349 21.1866 16.0307 21.4753 16.5335 21.9897C17.0359 22.5037 17.3186 23.2012 17.3186 23.9285C17.3178 24.6551 17.0355 25.3521 16.5331 25.8661C16.0307 26.3801 15.3497 26.6693 14.6392 26.6701ZM14.6392 22.6142C14.1196 22.6138 13.6508 22.9337 13.4518 23.4247C13.2529 23.9158 13.3626 24.4814 13.7301 24.8573C14.0972 25.2333 14.6496 25.3459 15.13 25.1424C15.61 24.9393 15.923 24.4597 15.923 23.9285C15.9226 23.2028 15.3482 22.6151 14.6392 22.6142Z" fill="black"/>
<path d="M24.408 21.3544C23.7214 21.3544 23.0633 21.0755 22.5777 20.5791C22.0922 20.0827 21.8195 19.4095 21.8191 18.7071C21.8191 18.0051 22.0917 17.3314 22.5769 16.8351C23.0621 16.3383 23.7207 16.0594 24.4068 16.0594C25.0933 16.0594 25.7515 16.3383 26.237 16.8347C26.7222 17.3311 26.9949 18.0047 26.9949 18.7067C26.9941 19.4087 26.7214 20.0815 26.2366 20.578C25.7514 21.074 25.0937 21.3533 24.4079 21.3545L24.408 21.3544ZM24.408 17.4874C23.9256 17.4874 23.4904 17.7843 23.3055 18.2401C23.1209 18.696 23.223 19.221 23.5641 19.57C23.9052 19.919 24.418 20.0234 24.864 19.8342C25.3096 19.6454 25.5998 19.2002 25.5998 18.7067C25.599 18.0338 25.0657 17.4882 24.408 17.4874Z" fill="black"/>
</svg>
